<?xml version="1.0"?>
<svg xmlns="http://www.w3.org/2000/svg" viewBox="0 0 1230 1199">
<g transform="translate(0,1199) scale(0.1,-0.1)" stroke="none">
<path fill="#014076" fill-rule="evenodd" d="M2099 9283 c-1 -606 0 -6685 1 -7041 l0 -52 2920 0 2920 1 0 699 0 700 -2080 0 -2080 0 -32 29 -33 29 -2 2384 c-1 1650 2 2392 9 2411 23 61 -165 57 2555 57 2222 0 2491 -2 2510 -15 43 -30 45 -61 43 -839 -1 -408 -2 -940 -1 -1183 l1 -443 805 0 805 0 1 1113 c1 611 1 1126 1 1142 0 17 0 434 -1 928 l-1 897 -4170 0 -4170 0 -1 -817z"/>
<path fill="#00ABF3" fill-rule="evenodd" d="M8520 5405 l0 -285 208 -2 207 -3 3 -1167 2 -1168 -210 0 -210 0 0 -295 0 -295 960 0 960 0 1 68 c1 37 2 141 4 232 1 91 0 193 -3 227 l-5 63 -206 2 -206 3 0 1165 0 1165 206 3 206 2 7 47 c8 59 8 267 -1 411 l-6 112 -959 0 -958 0 0 -285z"/>
</g>
</svg>
